<svg width="18" height="20" viewBox="0 0 18 20" fill="none" xmlns="http://www.w3.org/2000/svg">
    <path d="M11.7383 11.748C12.6237 12.054 13.4212 12.4837 14.1309 13.0371C14.847 13.584 15.4525 14.2188 15.9473 14.9414C16.4486 15.6641 16.8327 16.4551 17.0996 17.3145C17.3665 18.1738 17.5 19.069 17.5 20H16.25C16.25 18.9323 16.0579 17.9427 15.6738 17.0312C15.2962 16.1133 14.7721 15.319 14.1016 14.6484C13.431 13.9779 12.6367 13.4538 11.7188 13.0762C10.8073 12.6921 9.81771 12.5 8.75 12.5C8.05339 12.5 7.38281 12.5879 6.73828 12.7637C6.09375 12.9395 5.49154 13.1901 4.93164 13.5156C4.37826 13.8346 3.8737 14.222 3.41797 14.6777C2.96875 15.127 2.58138 15.6315 2.25586 16.1914C1.93685 16.7448 1.68945 17.3438 1.51367 17.9883C1.33789 18.6328 1.25 19.3034 1.25 20H0C0 19.0625 0.136719 18.1673 0.410156 17.3145C0.683594 16.4551 1.07096 15.6673 1.57227 14.9512C2.07357 14.235 2.67904 13.6035 3.38867 13.0566C4.10482 12.5098 4.90234 12.0768 5.78125 11.7578C5.27344 11.4844 4.81771 11.1523 4.41406 10.7617C4.01042 10.3711 3.66536 9.93815 3.37891 9.46289C3.09896 8.98112 2.88086 8.47005 2.72461 7.92969C2.57487 7.38281 2.5 6.82292 2.5 6.25C2.5 5.38411 2.66276 4.57357 2.98828 3.81836C3.3138 3.05664 3.75977 2.39258 4.32617 1.82617C4.89258 1.25977 5.55339 0.813802 6.30859 0.488281C7.07031 0.16276 7.88411 0 8.75 0C9.61589 0 10.4264 0.16276 11.1816 0.488281C11.9434 0.813802 12.6074 1.25977 13.1738 1.82617C13.7402 2.39258 14.1862 3.05664 14.5117 3.81836C14.8372 4.57357 15 5.38411 15 6.25C15 6.82292 14.9219 7.37956 14.7656 7.91992C14.6159 8.46029 14.3978 8.9681 14.1113 9.44336C13.8314 9.91862 13.4896 10.3548 13.0859 10.752C12.6888 11.1426 12.2396 11.4746 11.7383 11.748ZM3.75 6.25C3.75 6.9401 3.88021 7.58789 4.14062 8.19336C4.40755 8.79883 4.76562 9.32943 5.21484 9.78516C5.67057 10.2344 6.20117 10.5924 6.80664 10.8594C7.41211 11.1198 8.0599 11.25 8.75 11.25C9.4401 11.25 10.0879 11.1198 10.6934 10.8594C11.2988 10.5924 11.8262 10.2344 12.2754 9.78516C12.7311 9.32943 13.0892 8.79883 13.3496 8.19336C13.6165 7.58789 13.75 6.9401 13.75 6.25C13.75 5.5599 13.6165 4.91211 13.3496 4.30664C13.0892 3.70117 12.7311 3.17383 12.2754 2.72461C11.8262 2.26888 11.2988 1.91081 10.6934 1.65039C10.0879 1.38346 9.4401 1.25 8.75 1.25C8.0599 1.25 7.41211 1.38346 6.80664 1.65039C6.20117 1.91081 5.67057 2.26888 5.21484 2.72461C4.76562 3.17383 4.40755 3.70117 4.14062 4.30664C3.88021 4.91211 3.75 5.5599 3.75 6.25Z" fill="white" />
</svg>