<svg width="94" height="77" viewBox="0 0 94 77" fill="none" xmlns="http://www.w3.org/2000/svg">
    <path d="M18.875 35.7785C19.666 35.7785 20.3984 35.9251 21.0723 36.2184C21.7461 36.5116 22.332 36.9221 22.8301 37.4499C23.3574 37.9483 23.7676 38.5348 24.0605 39.2092C24.3535 39.8836 24.5 40.6166 24.5 41.4083C24.5 42.2 24.3535 42.933 24.0605 43.6074C23.7676 44.2818 23.3574 44.8829 22.8301 45.4107C22.332 45.9092 21.7461 46.305 21.0723 46.5982C20.3984 46.8914 19.666 47.038 18.875 47.038C18.084 47.038 17.3516 46.8914 16.6777 46.5982C16.0039 46.305 15.4033 45.9092 14.876 45.4107C14.3779 44.8829 13.9824 44.2818 13.6895 43.6074C13.3965 42.933 13.25 42.2 13.25 41.4083C13.25 40.6166 13.3965 39.8836 13.6895 39.2092C13.9824 38.5348 14.3779 37.9483 14.876 37.4499C15.4033 36.9221 16.0039 36.5116 16.6777 36.2184C17.3516 35.9251 18.084 35.7785 18.875 35.7785ZM75.125 35.7785C75.916 35.7785 76.6484 35.9251 77.3223 36.2184C77.9961 36.5116 78.582 36.9221 79.0801 37.4499C79.6074 37.9483 80.0176 38.5348 80.3105 39.2092C80.6035 39.8836 80.75 40.6166 80.75 41.4083C80.75 42.2 80.6035 42.933 80.3105 43.6074C80.0176 44.2818 79.6074 44.8829 79.0801 45.4107C78.582 45.9092 77.9961 46.305 77.3223 46.5982C76.6484 46.8914 75.916 47.038 75.125 47.038C74.334 47.038 73.6016 46.8914 72.9277 46.5982C72.2539 46.305 71.6533 45.9092 71.126 45.4107C70.6279 44.8829 70.2324 44.2818 69.9395 43.6074C69.6465 42.933 69.5 42.2 69.5 41.4083C69.5 40.6166 69.6465 39.8836 69.9395 39.2092C70.2324 38.5348 70.6279 37.9483 71.126 37.4499C71.6533 36.9221 72.2539 36.5116 72.9277 36.2184C73.6016 35.9251 74.334 35.7785 75.125 35.7785ZM90.374 24.519L87.4736 27.3779C87.5322 27.5245 87.6787 27.9643 87.9131 28.6974C88.1475 29.4304 88.4258 30.2954 88.748 31.2923C89.0996 32.2893 89.4658 33.3595 89.8467 34.503C90.2275 35.6466 90.5791 36.7022 90.9014 37.6698C91.2236 38.6081 91.4873 39.3998 91.6924 40.0448C91.8975 40.6606 92 40.9685 92 40.9685V69.5571C92 70.3487 91.8535 71.0818 91.5605 71.7562C91.2676 72.4306 90.8574 73.0317 90.3301 73.5595C89.832 74.0579 89.2461 74.4538 88.5723 74.747C87.8984 75.0402 87.166 75.1868 86.375 75.1868H80.75C79.959 75.1868 79.2266 75.0402 78.5527 74.747C77.8789 74.4538 77.2783 74.0579 76.751 73.5595C76.2529 73.0317 75.8574 72.4306 75.5645 71.7562C75.2715 71.0818 75.125 70.3487 75.125 69.5571H18.875C18.875 70.3487 18.7285 71.0818 18.4355 71.7562C18.1426 72.4306 17.7324 73.0317 17.2051 73.5595C16.707 74.0579 16.1211 74.4538 15.4473 74.747C14.7734 75.0402 14.041 75.1868 13.25 75.1868H7.625C6.83398 75.1868 6.10156 75.0402 5.42773 74.747C4.75391 74.4538 4.15332 74.0579 3.62598 73.5595C3.12793 73.0317 2.73242 72.4306 2.43945 71.7562C2.14648 71.0818 2 70.3487 2 69.5571V40.9685C2 40.9685 2.10254 40.6606 2.30762 40.0448C2.5127 39.3998 2.77637 38.6081 3.09863 37.6698C3.4209 36.7022 3.77246 35.6466 4.15332 34.503C4.53418 33.3595 4.88574 32.2893 5.20801 31.2923C5.55957 30.2954 5.85254 29.4304 6.08691 28.6974C6.32129 27.9643 6.46777 27.5245 6.52637 27.3779L3.62598 24.519H2V18.8893H5.99902L8.50391 21.4402L11.7559 11.6322C12.2246 10.1954 12.8984 8.89059 13.7773 7.71772C14.6855 6.51553 15.7256 5.50394 16.8975 4.68293C18.0693 3.8326 19.3437 3.17287 20.7207 2.70372C22.127 2.23457 23.5918 2 25.1152 2H68.8848C70.4082 2 71.8584 2.23457 73.2353 2.70372C74.6416 3.17287 75.9307 3.8326 77.1025 4.68293C78.2744 5.50394 79.2998 6.51553 80.1787 7.71772C81.0576 8.89059 81.7461 10.1954 82.2441 11.6322L85.4961 21.4402L88.001 18.8893H92V24.519H90.374ZM25.1152 7.62975C23.2695 7.62975 21.6143 8.15754 20.1494 9.21312C18.7139 10.2687 17.7031 11.6615 17.1172 13.3915L13.3818 24.519H80.6182L76.8828 13.3915C76.2969 11.6615 75.2715 10.2687 73.8066 9.21312C72.3711 8.15754 70.7305 7.62975 68.8848 7.62975H25.1152ZM63.875 61.7722L59.3047 52.6678H34.6953L30.125 61.7722V63.9273H63.875V61.7722ZM86.375 63.9273V41.8481C86.375 41.8481 86.2871 41.5842 86.1113 41.0564C85.9355 40.4993 85.7012 39.8103 85.4082 38.9892C85.1445 38.1682 84.8516 37.2739 84.5293 36.3063C84.207 35.3094 83.8994 34.3858 83.6064 33.5354C83.3135 32.6558 83.0498 31.9081 82.8154 31.2923C82.6103 30.6766 82.4932 30.2954 82.4639 30.1488H11.5361C11.4775 30.2954 11.3457 30.6766 11.1406 31.2923C10.9355 31.9081 10.6865 32.6558 10.3936 33.5354C10.1006 34.3858 9.79297 35.3094 9.4707 36.3063C9.14844 37.2739 8.84082 38.1682 8.54785 38.9892C8.28418 39.8103 8.06445 40.4993 7.88867 41.0564C7.71289 41.5842 7.625 41.8481 7.625 41.8481V63.9273H24.5V60.4527L31.1797 47.038H62.8203L69.5 60.4527V63.9273H86.375Z" stroke="white" stroke-width="2.5"/>
</svg>
