<svg width="42" height="35" viewBox="0 0 42 35" fill="none" xmlns="http://www.w3.org/2000/svg">
    <path d="M8.5 16.0127C8.85156 16.0127 9.17708 16.0778 9.47656 16.2082C9.77604 16.3385 10.0365 16.5209 10.2578 16.7555C10.4922 16.977 10.6745 17.2377 10.8047 17.5374C10.9349 17.8371 11 18.1629 11 18.5148C11 18.8667 10.9349 19.1924 10.8047 19.4922C10.6745 19.7919 10.4922 20.0591 10.2578 20.2936C10.0365 20.5152 9.77604 20.6911 9.47656 20.8214C9.17708 20.9517 8.85156 21.0169 8.5 21.0169C8.14844 21.0169 7.82292 20.9517 7.52344 20.8214C7.22396 20.6911 6.95703 20.5152 6.72266 20.2936C6.5013 20.0591 6.32552 19.7919 6.19531 19.4922C6.0651 19.1924 6 18.8667 6 18.5148C6 18.1629 6.0651 17.8371 6.19531 17.5374C6.32552 17.2377 6.5013 16.977 6.72266 16.7555C6.95703 16.5209 7.22396 16.3385 7.52344 16.2082C7.82292 16.0778 8.14844 16.0127 8.5 16.0127ZM33.5 16.0127C33.8516 16.0127 34.1771 16.0778 34.4766 16.2082C34.776 16.3385 35.0365 16.5209 35.2578 16.7555C35.4922 16.977 35.6745 17.2377 35.8047 17.5374C35.9349 17.8371 36 18.1629 36 18.5148C36 18.8667 35.9349 19.1924 35.8047 19.4922C35.6745 19.7919 35.4922 20.0591 35.2578 20.2936C35.0365 20.5152 34.776 20.6911 34.4766 20.8214C34.1771 20.9517 33.8516 21.0169 33.5 21.0169C33.1484 21.0169 32.8229 20.9517 32.5234 20.8214C32.224 20.6911 31.957 20.5152 31.7227 20.2936C31.5013 20.0591 31.3255 19.7919 31.1953 19.4922C31.0651 19.1924 31 18.8667 31 18.5148C31 18.1629 31.0651 17.8371 31.1953 17.5374C31.3255 17.2377 31.5013 16.977 31.7227 16.7555C31.957 16.5209 32.224 16.3385 32.5234 16.2082C32.8229 16.0778 33.1484 16.0127 33.5 16.0127ZM40.2773 11.0085L38.9883 12.2791C39.0143 12.3442 39.0794 12.5397 39.1836 12.8655C39.2878 13.1913 39.4115 13.5757 39.5547 14.0188C39.7109 14.4619 39.8737 14.9376 40.043 15.4458C40.2122 15.954 40.3685 16.4232 40.5117 16.8532C40.6549 17.2703 40.7721 17.6221 40.8633 17.9088C40.9544 18.1825 41 18.3193 41 18.3193V31.0254C41 31.3772 40.9349 31.703 40.8047 32.0027C40.6745 32.3025 40.4922 32.5696 40.2578 32.8042C40.0365 33.0257 39.776 33.2017 39.4766 33.332C39.1771 33.4623 38.8516 33.5275 38.5 33.5275H36C35.6484 33.5275 35.3229 33.4623 35.0234 33.332C34.724 33.2017 34.457 33.0257 34.2227 32.8042C34.0013 32.5696 33.8255 32.3025 33.6953 32.0027C33.5651 31.703 33.5 31.3772 33.5 31.0254H8.5C8.5 31.3772 8.4349 31.703 8.30469 32.0027C8.17448 32.3025 7.99219 32.5696 7.75781 32.8042C7.53646 33.0257 7.27604 33.2017 6.97656 33.332C6.67708 33.4623 6.35156 33.5275 6 33.5275H3.5C3.14844 33.5275 2.82292 33.4623 2.52344 33.332C2.22396 33.2017 1.95703 33.0257 1.72266 32.8042C1.5013 32.5696 1.32552 32.3025 1.19531 32.0027C1.0651 31.703 1 31.3772 1 31.0254V18.3193C1 18.3193 1.04557 18.1825 1.13672 17.9088C1.22786 17.6221 1.34505 17.2703 1.48828 16.8532C1.63151 16.4232 1.78776 15.954 1.95703 15.4458C2.1263 14.9376 2.28255 14.4619 2.42578 14.0188C2.58203 13.5757 2.71224 13.1913 2.81641 12.8655C2.92057 12.5397 2.98568 12.3442 3.01172 12.2791L1.72266 11.0085H1V8.50634H2.77734L3.89063 9.64011L5.33594 5.28096C5.54427 4.6424 5.84375 4.06248 6.23438 3.54121C6.63802 3.0069 7.10026 2.5573 7.62109 2.19241C8.14193 1.81449 8.70833 1.52127 9.32031 1.31276C9.94531 1.10425 10.5964 1 11.2734 1H30.7266C31.4036 1 32.0482 1.10425 32.6602 1.31276C33.2852 1.52127 33.8581 1.81449 34.3789 2.19241C34.8997 2.5573 35.3555 3.0069 35.7461 3.54121C36.1367 4.06248 36.4427 4.6424 36.6641 5.28096L38.1094 9.64011L39.2227 8.50634H41V11.0085H40.2773ZM11.2734 3.50211C10.4531 3.50211 9.71745 3.73669 9.06641 4.20583C8.42839 4.67498 7.97917 5.29399 7.71875 6.06287L6.05859 11.0085H35.9414L34.2813 6.06287C34.0208 5.29399 33.5651 4.67498 32.9141 4.20583C32.276 3.73669 31.5469 3.50211 30.7266 3.50211H11.2734ZM28.5 27.5654L26.4688 23.519H15.5313L13.5 27.5654V28.5232H28.5V27.5654ZM38.5 28.5232V18.7103C38.5 18.7103 38.4609 18.593 38.3828 18.3584C38.3047 18.1108 38.2005 17.8046 38.0703 17.4397C37.9531 17.0748 37.8229 16.6773 37.6797 16.2473C37.5365 15.8042 37.3997 15.3937 37.2695 15.0157C37.1393 14.6248 37.0221 14.2925 36.918 14.0188C36.8268 13.7451 36.7747 13.5757 36.7617 13.5106H5.23828C5.21224 13.5757 5.15365 13.7451 5.0625 14.0188C4.97135 14.2925 4.86068 14.6248 4.73047 15.0157C4.60026 15.3937 4.46354 15.8042 4.32031 16.2473C4.17708 16.6773 4.04036 17.0748 3.91016 17.4397C3.79297 17.8046 3.69531 18.1108 3.61719 18.3584C3.53906 18.593 3.5 18.7103 3.5 18.7103V28.5232H11V26.979L13.9688 21.0169H28.0313L31 26.979V28.5232H38.5Z" stroke="white" />
</svg>