<svg width="180" height="180" viewBox="0 0 180 180" fill="none" xmlns="http://www.w3.org/2000/svg">
<circle cx="90" cy="90" r="90" fill="#EFF1FF"/>
<path d="M101.953 96.9922C105.495 98.2161 108.685 99.9349 111.523 102.148C114.388 104.336 116.81 106.875 118.789 109.766C120.794 112.656 122.331 115.82 123.398 119.258C124.466 122.695 125 126.276 125 130H120C120 125.729 119.232 121.771 117.695 118.125C116.185 114.453 114.089 111.276 111.406 108.594C108.724 105.911 105.547 103.815 101.875 102.305C98.2292 100.768 94.2708 100 90 100C87.2135 100 84.5312 100.352 81.9531 101.055C79.375 101.758 76.9661 102.76 74.7266 104.062C72.513 105.339 70.4948 106.888 68.6719 108.711C66.875 110.508 65.3255 112.526 64.0234 114.766C62.7474 116.979 61.7578 119.375 61.0547 121.953C60.3516 124.531 60 127.214 60 130H55C55 126.25 55.5469 122.669 56.6406 119.258C57.7344 115.82 59.2839 112.669 61.2891 109.805C63.2943 106.94 65.7161 104.414 68.5547 102.227C71.4193 100.039 74.6094 98.3073 78.125 97.0312C76.0938 95.9375 74.2708 94.6094 72.6562 93.0469C71.0417 91.4844 69.6615 89.7526 68.5156 87.8516C67.3958 85.9245 66.5234 83.8802 65.8984 81.7188C65.2995 79.5312 65 77.2917 65 75C65 71.5365 65.651 68.2943 66.9531 65.2734C68.2552 62.2266 70.0391 59.5703 72.3047 57.3047C74.5703 55.0391 77.2135 53.2552 80.2344 51.9531C83.2812 50.651 86.5365 50 90 50C93.4635 50 96.7057 50.651 99.7266 51.9531C102.773 53.2552 105.43 55.0391 107.695 57.3047C109.961 59.5703 111.745 62.2266 113.047 65.2734C114.349 68.2943 115 71.5365 115 75C115 77.2917 114.688 79.5182 114.062 81.6797C113.464 83.8411 112.591 85.8724 111.445 87.7734C110.326 89.6745 108.958 91.4193 107.344 93.0078C105.755 94.5703 103.958 95.8984 101.953 96.9922ZM70 75C70 77.7604 70.5208 80.3516 71.5625 82.7734C72.6302 85.1953 74.0625 87.3177 75.8594 89.1406C77.6823 90.9375 79.8047 92.3698 82.2266 93.4375C84.6484 94.4792 87.2396 95 90 95C92.7604 95 95.3516 94.4792 97.7734 93.4375C100.195 92.3698 102.305 90.9375 104.102 89.1406C105.924 87.3177 107.357 85.1953 108.398 82.7734C109.466 80.3516 110 77.7604 110 75C110 72.2396 109.466 69.6484 108.398 67.2266C107.357 64.8047 105.924 62.6953 104.102 60.8984C102.305 59.0755 100.195 57.6432 97.7734 56.6016C95.3516 55.5339 92.7604 55 90 55C87.2396 55 84.6484 55.5339 82.2266 56.6016C79.8047 57.6432 77.6823 59.0755 75.8594 60.8984C74.0625 62.6953 72.6302 64.8047 71.5625 67.2266C70.5208 69.6484 70 72.2396 70 75Z" fill="#6574FF"/>
</svg>
