<svg width="20" height="16" viewBox="0 0 20 16" fill="none" xmlns="http://www.w3.org/2000/svg">
<path d="M20 1.23077V16H0V1.23077H5.36133L6.61133 0H13.3887L14.6387 1.23077H20ZM18.75 2.46154H14.1113L12.8613 1.23077H7.13867L5.88867 2.46154H1.25V14.7692H18.75V2.46154ZM10 3.69231C10.6901 3.69231 11.3379 3.82051 11.9434 4.07692C12.5553 4.33333 13.0859 4.6859 13.5352 5.13462C13.9909 5.57692 14.349 6.09936 14.6094 6.70192C14.8698 7.29808 15 7.9359 15 8.61539C15 9.29487 14.8698 9.9359 14.6094 10.5385C14.349 11.1346 13.9909 11.6571 13.5352 12.1058C13.0859 12.5481 12.5553 12.8974 11.9434 13.1538C11.3379 13.4103 10.6901 13.5385 10 13.5385C9.3099 13.5385 8.65885 13.4103 8.04688 13.1538C7.44141 12.8974 6.91081 12.5481 6.45508 12.1058C6.00586 11.6571 5.65104 11.1346 5.39062 10.5385C5.13021 9.9359 5 9.29487 5 8.61539C5 7.9359 5.13021 7.29808 5.39062 6.70192C5.65104 6.09936 6.00586 5.57692 6.45508 5.13462C6.91081 4.6859 7.44141 4.33333 8.04688 4.07692C8.65885 3.82051 9.3099 3.69231 10 3.69231ZM10 12.3077C10.5143 12.3077 10.9993 12.2115 11.4551 12.0192C11.9108 11.8205 12.3079 11.5545 12.6465 11.2212C12.985 10.8878 13.252 10.4968 13.4473 10.0481C13.6491 9.59936 13.75 9.1218 13.75 8.61539C13.75 8.10897 13.6491 7.63141 13.4473 7.18269C13.252 6.73397 12.985 6.34295 12.6465 6.00962C12.3079 5.67628 11.9108 5.41346 11.4551 5.22115C10.9993 5.02244 10.5143 4.92308 10 4.92308C9.48568 4.92308 9.00065 5.02244 8.54492 5.22115C8.08919 5.41346 7.69206 5.67628 7.35352 6.00962C7.01497 6.34295 6.74479 6.73397 6.54297 7.18269C6.34766 7.63141 6.25 8.10897 6.25 8.61539C6.25 9.1218 6.34766 9.59936 6.54297 10.0481C6.74479 10.4968 7.01497 10.8878 7.35352 11.2212C7.69206 11.5545 8.08919 11.8205 8.54492 12.0192C9.00065 12.2115 9.48568 12.3077 10 12.3077ZM3.125 3.69231C3.29427 3.69231 3.44076 3.75321 3.56445 3.875C3.68815 3.99679 3.75 4.14103 3.75 4.30769C3.75 4.47436 3.68815 4.61859 3.56445 4.74038C3.44076 4.86218 3.29427 4.92308 3.125 4.92308C2.95573 4.92308 2.80924 4.86218 2.68555 4.74038C2.56185 4.61859 2.5 4.47436 2.5 4.30769C2.5 4.14103 2.56185 3.99679 2.68555 3.875C2.80924 3.75321 2.95573 3.69231 3.125 3.69231Z" fill="white"/>
</svg>
