<svg width="40" height="40" viewBox="0 0 40 40" fill="none" xmlns="http://www.w3.org/2000/svg">
<path d="M25.3077 13.6923V11.1538H9.15384V21.5385H11.4615V24.1797L13.5385 22.1028V13.6923H25.3077Z" fill="white"/>
<path d="M28.3077 17.3846H17.2308V16.4615H28.3077V17.3846Z" fill="white"/>
<path d="M17.2308 20.1538H28.3077V19.2307H17.2308V20.1538Z" fill="white"/>
<path d="M28.3077 22.9231H17.2308V22H28.3077V22.9231Z" fill="white"/>
<path fill-rule="evenodd" clip-rule="evenodd" d="M20 40C31.0457 40 40 31.0457 40 20C40 8.95435 31.0457 0 20 0C8.9543 0 0 8.95435 0 20C0 31.0457 8.9543 40 20 40ZM26.4615 10H8V22.6923H10.3077V26.9741L13.5385 23.7433V26.3846H25.4105L29.6923 30.6665V26.3846H32V13.6923H26.4615V10Z" fill="white"/>
</svg>
