<svg width="40" height="40" viewBox="0 0 40 40" fill="none" xmlns="http://www.w3.org/2000/svg">
<path fill-rule="evenodd" clip-rule="evenodd" d="M40 29.9098C40 35.474 35.474 40 29.9098 40H10.0902C4.52597 40 0 35.474 0 29.9098V10.0902C0 4.52597 4.52597 0 10.0902 0H29.9098C35.474 0 40 4.52597 40 10.0902V29.9098ZM10.0902 4.35271H29.9098C33.0732 4.35271 35.6473 6.92679 35.6473 10.0902V29.9098C35.6473 33.0732 33.0732 35.6473 29.9098 35.6473H10.0902C6.92679 35.6473 4.35271 33.0732 4.35271 29.9098V10.0902C4.35271 6.92679 6.92679 4.35271 10.0902 4.35271Z" fill="white"/>
<path fill-rule="evenodd" clip-rule="evenodd" d="M19.9993 30.3022C14.3196 30.3022 9.69777 25.6804 9.69777 19.9993C9.69777 14.3196 14.3196 9.69777 19.9993 9.69777C25.6804 9.69777 30.3022 14.3196 30.3022 19.9993C30.3022 25.6804 25.6804 30.3022 19.9993 30.3022ZM14.0505 19.9993C14.0505 16.7204 16.7204 14.0518 19.9993 14.0518C23.2796 14.0518 25.9482 16.7204 25.9482 19.9993C25.9482 23.2796 23.2796 25.9495 19.9993 25.9495C16.7204 25.9495 14.0505 23.2796 14.0505 19.9993Z" fill="white"/>
<path d="M30.633 11.8282C29.2889 11.8282 28.1954 10.7347 28.1954 9.39061C28.1954 8.04647 29.2889 6.95304 30.633 6.95304C31.9772 6.95304 33.0706 8.04647 33.0706 9.39061C33.0706 10.7347 31.9772 11.8282 30.633 11.8282Z" fill="white"/>
</svg>
