<svg width="14" height="20" viewBox="0 0 14 20" fill="none" xmlns="http://www.w3.org/2000/svg">
<path fill-rule="evenodd" clip-rule="evenodd" d="M9.56446 14.8139C11.812 11.1054 13.0233 9.10697 13.0233 6.51163C13.0233 2.91535 10.1079 0 6.51163 0C2.91538 0 0 2.91535 0 6.51163C0 9.10697 1.21122 11.1054 3.45879 14.8139C4.3256 16.2442 5.34657 17.9287 6.51163 20C7.67669 17.9287 8.69765 16.2442 9.56446 14.8139ZM6.51163 9.30233C8.05289 9.30233 9.30233 8.05289 9.30233 6.51163C9.30233 4.97037 8.05289 3.72093 6.51163 3.72093C4.97036 3.72093 3.72093 4.97037 3.72093 6.51163C3.72093 8.05289 4.97036 9.30233 6.51163 9.30233Z" fill="white"/>
</svg>
