<svg width="15" height="20" viewBox="0 0 15 20" fill="none" xmlns="http://www.w3.org/2000/svg">
<path d="M15 8.75V20H0V8.75H2.5V5.09766C2.5 4.39453 2.62695 3.73372 2.88086 3.11523C3.13477 2.49674 3.48633 1.95638 3.93555 1.49414C4.38477 1.0319 4.91211 0.667318 5.51758 0.400391C6.12956 0.133464 6.79036 0 7.5 0C8.20964 0 8.86719 0.133464 9.47266 0.400391C10.0846 0.667318 10.6152 1.0319 11.0645 1.49414C11.5137 1.95638 11.8652 2.49674 12.1191 3.11523C12.373 3.73372 12.5 4.39453 12.5 5.09766V8.75H15ZM3.75 8.75H11.25V5.09766C11.25 4.57031 11.1556 4.07552 10.9668 3.61328C10.778 3.14453 10.5143 2.73438 10.1758 2.38281C9.84375 2.03125 9.44661 1.75456 8.98438 1.55273C8.52865 1.35091 8.03385 1.25 7.5 1.25C6.96615 1.25 6.4681 1.35091 6.00586 1.55273C5.55013 1.75456 5.15299 2.03125 4.81445 2.38281C4.48242 2.73438 4.22201 3.14453 4.0332 3.61328C3.8444 4.07552 3.75 4.57031 3.75 5.09766V8.75ZM13.75 10H1.25V18.75H13.75V10Z" fill="white"/>
</svg>
