<svg width="40" height="40" viewBox="0 0 40 40" fill="none" xmlns="http://www.w3.org/2000/svg">
<path fill-rule="evenodd" clip-rule="evenodd" d="M20 40C31.0457 40 40 31.0457 40 20C40 8.95435 31.0457 0 20 0C8.95431 0 0 8.95435 0 20C0 31.0457 8.95431 40 20 40ZM27.275 30.3585C26.8999 30.4602 26.4309 30.511 25.8681 30.511C25.0239 30.511 24.1407 30.3743 23.2184 30.1006C22.3039 29.8192 21.3815 29.4324 20.4514 28.9399C19.5291 28.4397 18.6146 27.8495 17.7079 27.1696C16.809 26.4895 15.9531 25.7469 15.1402 24.9419C14.3273 24.1368 13.577 23.2848 12.8891 22.386C12.2013 21.4792 11.6033 20.5608 11.0953 19.6307C10.595 18.7006 10.2003 17.7704 9.91109 16.8402C9.62971 15.9102 9.48901 15.0073 9.48901 14.132C9.48901 13.5769 9.53982 13.1118 9.64143 12.7367C9.75086 12.3536 9.90719 12.0098 10.1104 11.705C10.3214 11.4001 10.5716 11.103 10.8608 10.8138C11.1578 10.5247 11.4939 10.1925 11.8691 9.81726C12.0801 9.6062 12.3342 9.50073 12.6312 9.50073C12.7719 9.50073 12.936 9.55933 13.1236 9.67664C13.319 9.78601 13.5222 9.93066 13.7333 10.1104C13.9443 10.2902 14.1593 10.4934 14.3781 10.7201C14.6048 10.939 14.8158 11.1578 15.0112 11.3767C15.2145 11.5876 15.3981 11.787 15.5623 11.9746C15.6647 12.0817 15.7546 12.1748 15.832 12.2542C15.8847 12.3081 15.9315 12.3556 15.9726 12.3967C16.1837 12.6077 16.2892 12.8656 16.2892 13.1705C16.2892 13.3737 16.2306 13.5613 16.1133 13.7333C15.9961 13.9053 15.8515 14.0771 15.6795 14.2491C15.5076 14.4211 15.3161 14.6008 15.105 14.7885C14.9018 14.9683 14.7142 15.1676 14.5423 15.3865C14.3703 15.6052 14.2257 15.8514 14.1085 16.1251C13.9912 16.3909 13.9326 16.6957 13.9326 17.0396C13.9326 17.3835 13.9951 17.7157 14.1202 18.0361C14.2531 18.3488 14.4407 18.6263 14.683 18.8685L21.1431 25.3287C21.3855 25.571 21.6629 25.7587 21.9756 25.8916C22.2961 26.0166 22.6282 26.0791 22.9722 26.0791C23.3161 26.0791 23.6209 26.0205 23.8867 25.9033C24.1602 25.786 24.4065 25.6415 24.6253 25.4695C24.8442 25.2975 25.0435 25.1099 25.2233 24.9067C25.4109 24.6957 25.5906 24.5042 25.7626 24.3322C25.9345 24.1603 26.1065 24.0156 26.2785 23.8984C26.4504 23.7811 26.638 23.7225 26.8412 23.7225C27.1461 23.7225 27.404 23.828 27.6151 24.0391C27.7167 24.1407 27.8574 24.2775 28.0371 24.4495C28.2247 24.6135 28.424 24.7972 28.6351 25.0005C28.8539 25.1959 29.0728 25.407 29.2917 25.6337C29.5183 25.8524 29.7215 26.0674 29.9013 26.2784C30.0811 26.4895 30.2257 26.6927 30.3351 26.8882C30.4524 27.0757 30.511 27.2399 30.511 27.3806C30.511 27.6776 30.4055 27.9316 30.1944 28.1427C29.8193 28.5178 29.4871 28.8539 29.1979 29.151C28.9087 29.448 28.6116 29.6981 28.3068 29.9014C28.002 30.0967 27.658 30.2491 27.275 30.3585Z" fill="white"/>
</svg>
