<svg width="22" height="22" viewBox="0 0 22 22" fill="none" xmlns="http://www.w3.org/2000/svg">
<path d="M16.8681 21.511C17.4309 21.511 17.8999 21.4602 18.275 21.3586C18.658 21.2491 19.002 21.0967 19.3068 20.9013C19.6116 20.6981 19.9086 20.448 20.1979 20.151C20.4871 19.8539 20.8192 19.5178 21.1944 19.1427C21.4055 18.9316 21.511 18.6776 21.511 18.3806C21.511 18.2399 21.4524 18.0757 21.3351 17.8881C21.2257 17.6927 21.0811 17.4895 20.9013 17.2785C20.7215 17.0674 20.5183 16.8525 20.2916 16.6336C20.0728 16.4069 19.8539 16.1959 19.6351 16.0005C19.424 15.7973 19.2247 15.6136 19.0371 15.4494C18.8574 15.2775 18.7167 15.1407 18.615 15.0391C18.404 14.828 18.1461 14.7225 17.8412 14.7225C17.638 14.7225 17.4504 14.7811 17.2785 14.8984C17.1065 15.0156 16.9345 15.1602 16.7626 15.3322C16.5906 15.5042 16.4108 15.6957 16.2233 15.9067C16.0435 16.1099 15.8442 16.2975 15.6253 16.4695C15.4065 16.6414 15.1602 16.786 14.8867 16.9033C14.6209 17.0205 14.3161 17.0791 13.9722 17.0791C13.6282 17.0791 13.296 17.0166 12.9756 16.8916C12.6629 16.7587 12.3854 16.5711 12.1431 16.3288L5.68295 9.86859C5.44065 9.62628 5.25305 9.3488 5.12018 9.03615C4.99512 8.71568 4.93258 8.38349 4.93258 8.03957C4.93258 7.69565 4.99121 7.39082 5.10845 7.12506C5.2257 6.85149 5.3703 6.60528 5.54226 6.38642C5.71422 6.16756 5.90181 5.96825 6.10503 5.78847C6.31607 5.60088 6.50757 5.4211 6.67953 5.24915C6.85149 5.07719 6.99609 4.90523 7.11334 4.73327C7.23058 4.56131 7.2892 4.37372 7.2892 4.17049C7.2892 3.86566 7.18368 3.60772 6.97264 3.39668C6.87103 3.29507 6.73425 3.15437 6.56229 2.9746C6.39814 2.78701 6.21446 2.58769 6.01124 2.37665C5.81583 2.15779 5.60479 1.93894 5.37811 1.72008C5.15926 1.49341 4.94431 1.29018 4.73327 1.11041C4.52223 0.93063 4.319 0.786028 4.1236 0.6766C3.936 0.559355 3.77186 0.500733 3.63117 0.500733C3.33415 0.500733 3.08012 0.606253 2.86908 0.817294C2.49389 1.19248 2.15779 1.52467 1.86077 1.81387C1.57157 2.10308 1.32145 2.4001 1.11041 2.70493C0.907181 3.00977 0.750855 3.35369 0.641427 3.73669C0.539814 4.11187 0.489008 4.57694 0.489008 5.1319C0.489008 6.00733 0.629702 6.91011 0.91109 7.84025C1.20029 8.7704 1.59502 9.70054 2.09526 10.6307C2.60332 11.5608 3.20127 12.4792 3.88911 13.3859C4.57694 14.2848 5.32731 15.1368 6.14021 15.9419C6.9531 16.7469 7.80899 17.4895 8.70787 18.1695C9.61456 18.8495 10.5291 19.4397 11.4514 19.9399C12.3815 20.4323 13.3039 20.8192 14.2184 21.1006C15.1407 21.3742 16.0239 21.511 16.8681 21.511Z" fill="#6574FF"/>
</svg>
