<svg width="55" height="38" viewBox="0 0 55 38" fill="none" xmlns="http://www.w3.org/2000/svg">
<rect width="55" height="37" rx="2" fill="white"/>
<path d="M46.8574 8.29765V37.5834H7.80981V8.29765H18.2772L20.7176 5.85718H33.9496L36.3901 8.29765H46.8574ZM44.417 10.7381H35.3605L32.92 8.29765H21.7472L19.3067 10.7381H10.2503V35.1429H44.417V10.7381ZM27.3336 13.1786C28.681 13.1786 29.9457 13.4328 31.1278 13.9413C32.3226 14.4497 33.3585 15.1488 34.2356 16.0385C35.1254 16.9156 35.8244 17.9515 36.3329 19.1463C36.8413 20.3284 37.0955 21.5932 37.0955 22.9405C37.0955 24.2879 36.8413 25.5589 36.3329 26.7538C35.8244 27.9359 35.1254 28.9718 34.2356 29.8615C33.3585 30.7386 32.3226 31.4313 31.1278 31.9398C29.9457 32.4482 28.681 32.7024 27.3336 32.7024C25.9863 32.7024 24.7152 32.4482 23.5204 31.9398C22.3383 31.4313 21.3023 30.7386 20.4126 29.8615C19.5355 28.9718 18.8428 27.9359 18.3344 26.7538C17.8259 25.5589 17.5717 24.2879 17.5717 22.9405C17.5717 21.5932 17.8259 20.3284 18.3344 19.1463C18.8428 17.9515 19.5355 16.9156 20.4126 16.0385C21.3023 15.1488 22.3383 14.4497 23.5204 13.9413C24.7152 13.4328 25.9863 13.1786 27.3336 13.1786ZM27.3336 30.2619C28.3378 30.2619 29.2847 30.0713 30.1745 29.69C31.0642 29.2959 31.8396 28.7684 32.5006 28.1075C33.1615 27.4465 33.6827 26.6711 34.064 25.7814C34.458 24.8916 34.6551 23.9447 34.6551 22.9405C34.6551 21.9364 34.458 20.9894 34.064 20.0996C33.6827 19.2099 33.1615 18.4345 32.5006 17.7736C31.8396 17.1126 31.0642 16.5915 30.1745 16.2101C29.2847 15.8161 28.3378 15.6191 27.3336 15.6191C26.3295 15.6191 25.3825 15.8161 24.4928 16.2101C23.603 16.5915 22.8276 17.1126 22.1667 17.7736C21.5057 18.4345 20.9782 19.2099 20.5842 20.0996C20.2029 20.9894 20.0122 21.9364 20.0122 22.9405C20.0122 23.9447 20.2029 24.8916 20.5842 25.7814C20.9782 26.6711 21.5057 27.4465 22.1667 28.1075C22.8276 28.7684 23.603 29.2959 24.4928 29.69C25.3825 30.0713 26.3295 30.2619 27.3336 30.2619ZM13.911 13.1786C14.2415 13.1786 14.5275 13.2994 14.769 13.5409C15.0105 13.7824 15.1312 14.0684 15.1312 14.3988C15.1312 14.7293 15.0105 15.0153 14.769 15.2568C14.5275 15.4983 14.2415 15.6191 13.911 15.6191C13.5805 15.6191 13.2945 15.4983 13.053 15.2568C12.8115 15.0153 12.6908 14.7293 12.6908 14.3988C12.6908 14.0684 12.8115 13.7824 13.053 13.5409C13.2945 13.2994 13.5805 13.1786 13.911 13.1786Z" fill="#6574FF"/>
</svg>
