<svg width="20" height="23" viewBox="0 0 20 23" fill="none" xmlns="http://www.w3.org/2000/svg">
<path d="M8.51913 5.59748C7.3729 5.59748 6.28582 5.81349 5.2579 6.24549C4.22259 6.6775 3.3019 7.29944 2.49584 8.11132C1.68978 8.9232 1.07229 9.85052 0.643372 10.8933C0.214457 11.9286 0 13.0235 0 14.1781C0 14.9676 0.103531 15.7273 0.310593 16.4573C0.51026 17.1872 0.794971 17.8725 1.16472 18.513C1.53448 19.1461 1.97818 19.7234 2.49584 20.2448C3.0135 20.7662 3.59031 21.2131 4.22629 21.5855C4.85487 21.9579 5.53152 22.2484 6.25624 22.457C6.98096 22.6581 7.73526 22.7586 8.51913 22.7586H18.4581V21.3285H8.51913C7.86837 21.3285 7.23979 21.2429 6.63339 21.0716C6.02699 20.9002 5.46127 20.6619 4.93622 20.3565C4.41117 20.0437 3.93418 19.6713 3.50527 19.2392C3.06896 18.7998 2.69921 18.3156 2.39601 17.7868C2.08541 17.258 1.84507 16.6882 1.67499 16.0774C1.5049 15.4666 1.41986 14.8335 1.41986 14.1781C1.41986 13.5226 1.5049 12.8895 1.67499 12.2787C1.84507 11.6679 2.08541 11.0981 2.39601 10.5693C2.69921 10.0405 3.06896 9.56004 3.50527 9.12803C3.93418 8.68857 4.41117 8.31615 4.93622 8.01077C5.46127 7.69793 6.02699 7.45586 6.63339 7.28455C7.23979 7.11323 7.86837 7.02758 8.51913 7.02758H17.6262L12.9007 11.7983L13.7216 12.6251L20 6.31253L13.7216 0L12.9007 0.826774L17.6262 5.59748H8.51913Z" fill="#6574FF"/>
</svg>
