<svg width="18" height="19" viewBox="0 0 18 19" fill="none" xmlns="http://www.w3.org/2000/svg">
<path d="M18 17.6025C18 17.7619 17.9502 17.9013 17.8506 18.0208C17.751 18.1403 17.6133 18.2 17.4375 18.2C17.2852 18.2 17.1533 18.1459 17.042 18.0378L11.6735 12.831C10.7984 11.9824 9.43697 11.9716 8.28809 12.379C7.62012 12.618 6.91992 12.7375 6.1875 12.7375C5.61914 12.7375 5.07129 12.6664 4.54395 12.5241C4.0166 12.3819 3.52441 12.1799 3.06738 11.9181C2.61035 11.6564 2.19141 11.3434 1.81055 10.9793C1.43555 10.6094 1.11328 10.2026 0.84375 9.75873C0.574219 9.3149 0.366211 8.83694 0.219727 8.32483C0.0732422 7.81272 0 7.28069 0 6.72875C0 6.17681 0.0732422 5.64479 0.219727 5.13268C0.366211 4.62057 0.574219 4.1426 0.84375 3.69877C1.11328 3.25494 1.43555 2.85095 1.81055 2.48678C2.19141 2.11692 2.61035 1.80112 3.06738 1.53938C3.52441 1.27763 4.0166 1.07563 4.54395 0.93338C5.07129 0.791128 5.61914 0.720001 6.1875 0.720001C6.75586 0.720001 7.30371 0.791128 7.83105 0.93338C8.3584 1.07563 8.85059 1.27763 9.30762 1.53938C9.76465 1.80112 10.1807 2.11692 10.5557 2.48678C10.9365 2.85095 11.2617 3.25494 11.5312 3.69877C11.8008 4.1426 12.0088 4.62057 12.1553 5.13268C12.3018 5.64479 12.375 6.17681 12.375 6.72875C12.375 7.44001 12.252 8.12283 12.0059 8.77719C11.8408 9.21234 11.6269 9.62444 11.3643 10.0135C11.1443 10.3393 11.1614 10.7822 11.4434 11.0561C11.6953 11.2951 11.9941 11.5796 12.3398 11.9096C12.6914 12.2396 13.0723 12.6038 13.4824 13.0021C13.8984 13.3947 14.3145 13.7959 14.7305 14.2055C15.1523 14.6095 15.5596 15.005 15.9521 15.3919C16.3447 15.7789 16.6934 16.1288 16.998 16.4418C17.3027 16.7547 17.5459 17.0165 17.7275 17.227C17.9092 17.4318 18 17.557 18 17.6025ZM6.1875 11.645C6.88477 11.645 7.54102 11.517 8.15625 11.2609C8.77148 10.9992 9.30762 10.6464 9.76465 10.2026C10.2217 9.75873 10.582 9.23809 10.8457 8.64063C11.1152 8.04317 11.25 7.40587 11.25 6.72875C11.25 6.05163 11.1152 5.41434 10.8457 4.81688C10.582 4.21942 10.2217 3.69877 9.76465 3.25494C9.30762 2.81111 8.77148 2.46117 8.15625 2.20512C7.54102 1.94337 6.88477 1.8125 6.1875 1.8125C5.49023 1.8125 4.83398 1.94337 4.21875 2.20512C3.60352 2.46117 3.06738 2.81111 2.61035 3.25494C2.15332 3.69877 1.79004 4.21942 1.52051 4.81688C1.25684 5.41434 1.125 6.05163 1.125 6.72875C1.125 7.40587 1.25684 8.04317 1.52051 8.64063C1.79004 9.23809 2.15332 9.75873 2.61035 10.2026C3.06738 10.6464 3.60352 10.9992 4.21875 11.2609C4.83398 11.517 5.49023 11.645 6.1875 11.645Z" fill="#6574FF"/>
</svg>
