<svg width="20" height="23" viewBox="0 0 20 23" fill="none" xmlns="http://www.w3.org/2000/svg">
<path d="M11.4809 5.59748C12.6271 5.59748 13.7142 5.81349 14.7421 6.24549C15.7774 6.6775 16.6981 7.29944 17.5042 8.11132C18.3102 8.9232 18.9277 9.85052 19.3566 10.8933C19.7855 11.9286 20 13.0235 20 14.1781C20 14.9676 19.8965 15.7273 19.6894 16.4573C19.4897 17.1872 19.205 17.8725 18.8353 18.513C18.4655 19.1461 18.0218 19.7234 17.5042 20.2448C16.9865 20.7662 16.4097 21.2131 15.7737 21.5855C15.1451 21.9579 14.4685 22.2484 13.7438 22.457C13.019 22.6581 12.2647 22.7586 11.4809 22.7586H1.54187V21.3285H11.4809C12.1316 21.3285 12.7602 21.2429 13.3666 21.0716C13.973 20.9002 14.5387 20.6619 15.0638 20.3565C15.5888 20.0437 16.0658 19.6713 16.4947 19.2392C16.931 18.7998 17.3008 18.3156 17.604 17.7868C17.9146 17.258 18.1549 16.6882 18.325 16.0774C18.4951 15.4666 18.5801 14.8335 18.5801 14.1781C18.5801 13.5226 18.4951 12.8895 18.325 12.2787C18.1549 11.6679 17.9146 11.0981 17.604 10.5693C17.3008 10.0405 16.931 9.56004 16.4947 9.12803C16.0658 8.68857 15.5888 8.31615 15.0638 8.01077C14.5387 7.69793 13.973 7.45586 13.3666 7.28455C12.7602 7.11323 12.1316 7.02758 11.4809 7.02758H2.37382L7.09928 11.7983L6.27843 12.6251L0 6.31253L6.27843 0L7.09928 0.826774L2.37382 5.59748H11.4809Z" fill="#6574FF"/>
</svg>
