<svg width="49" height="49" viewBox="0 0 49 49" fill="none" xmlns="http://www.w3.org/2000/svg">
<path d="M18.4642 22.187C18.1466 21.4486 17.9878 20.6587 17.9878 19.8171C17.9878 18.9755 18.1466 18.1855 18.4642 17.4471C18.7897 16.7087 19.2264 16.0656 19.7742 15.5178C20.33 14.962 20.977 14.5254 21.7154 14.2078C22.4538 13.8823 23.2438 13.7195 24.0854 13.7195C24.927 13.7195 25.7169 13.8823 26.4553 14.2078C27.1937 14.5254 27.8368 14.962 28.3846 15.5178C28.9404 16.0656 29.3771 16.7087 29.6946 17.4471C30.0202 18.1855 30.1829 18.9755 30.1829 19.8171C30.1829 20.6587 30.0202 21.4486 29.6946 22.187C29.3771 22.9254 28.9404 23.5725 28.3846 24.1282C27.8368 24.6761 27.1937 25.1127 26.4553 25.4383C25.7169 25.7558 24.927 25.9146 24.0854 25.9146C23.2438 25.9146 22.4538 25.7558 21.7154 25.4383C20.977 25.1127 20.33 24.6761 19.7742 24.1282C19.2264 23.5725 18.7897 22.9254 18.4642 22.187Z" fill="white"/>
<path fill-rule="evenodd" clip-rule="evenodd" d="M24.3902 48.7805C37.8606 48.7805 48.7805 37.8606 48.7805 24.3902C48.7805 10.9199 37.8606 0 24.3902 0C10.9199 0 0 10.9199 0 24.3902C0 37.8606 10.9199 48.7805 24.3902 48.7805ZM30.6474 28.094C29.782 27.4192 28.8094 26.8952 27.7296 26.522C28.341 26.1885 28.8888 25.7836 29.3731 25.3073C29.8653 24.8229 30.2822 24.291 30.6236 23.7114C30.9729 23.1318 31.2389 22.5125 31.4215 21.8536C31.612 21.1946 31.7073 20.5158 31.7073 19.8171C31.7073 18.7611 31.5088 17.7726 31.1119 16.8517C30.7149 15.9227 30.171 15.1129 29.4803 14.4222C28.7895 13.7314 27.9797 13.1876 27.0508 12.7906C26.1298 12.3936 25.1413 12.1951 24.0854 12.1951C23.0294 12.1951 22.037 12.3936 21.108 12.7906C20.1871 13.1876 19.3812 13.7314 18.6905 14.4222C17.9997 15.1129 17.4559 15.9227 17.0589 16.8517C16.6619 17.7726 16.4634 18.7611 16.4634 19.8171C16.4634 20.5158 16.5547 21.1986 16.7373 21.8655C16.9279 22.5245 17.1939 23.1477 17.5353 23.7352C17.8846 24.3148 18.3054 24.8428 18.7976 25.3192C19.2899 25.7955 19.8457 26.2005 20.4649 26.5339C19.3931 26.923 18.4205 27.4509 17.5472 28.1179C16.6818 28.7848 15.9434 29.5549 15.332 30.4283C14.7207 31.3016 14.2483 32.2623 13.9148 33.3103C13.5814 34.3504 13.4146 35.4421 13.4146 36.5854H14.939C14.939 35.7358 15.0462 34.9181 15.2606 34.1321C15.4749 33.346 15.7766 32.6156 16.1657 31.9407C16.5627 31.2579 17.0351 30.6426 17.5829 30.0948C18.1387 29.539 18.754 29.0666 19.4288 28.6776C20.1116 28.2806 20.846 27.9749 21.6321 27.7606C22.4181 27.5462 23.2358 27.439 24.0854 27.439C25.3874 27.439 26.5943 27.6732 27.7058 28.1417C28.8253 28.6022 29.7939 29.2413 30.6117 30.0591C31.4294 30.8768 32.0686 31.8455 32.5291 32.9649C32.9975 34.0765 33.2317 35.2833 33.2317 36.5854H34.7561C34.7561 35.45 34.5933 34.3583 34.2678 33.3103C33.9423 32.2623 33.4739 31.2976 32.8625 30.4163C32.2591 29.5351 31.5207 28.761 30.6474 28.094Z" fill="white"/>
</svg>
