<svg width="40" height="40" viewBox="0 0 40 40" fill="none" xmlns="http://www.w3.org/2000/svg">
<path d="M8.77304 11.372C9.88974 14.1297 11.305 16.7297 13.169 19.0638C13.4162 19.3745 13.7278 19.6506 14.0561 19.8754C14.5357 20.2048 14.9881 20.089 15.1831 19.5405C15.3893 18.9649 15.5785 17.7983 15.5898 17.1938C15.6206 15.6144 15.5852 14.5793 15.5003 13.0018C15.4453 11.9914 15.0861 11.1042 13.5999 10.8364C13.141 10.7534 13.0983 10.3756 13.3932 9.99877C14.0071 9.21416 14.8622 9.08912 15.7896 9.03963C17.2925 8.95845 18.801 9.0247 20.3058 9.03963C20.9188 9.04526 21.5354 9.09464 22.1391 9.22623C22.9264 9.39789 23.3481 9.95021 23.4778 10.7189C23.545 11.1154 23.5796 11.523 23.5701 11.9242C23.531 13.6482 23.448 15.3713 23.4283 17.0944C23.42 17.7708 23.4693 18.464 23.614 19.1226C23.8165 20.0406 24.4415 20.271 25.0806 19.6078C25.8922 18.7654 26.6078 17.8175 27.2794 16.8548C28.4997 15.1037 29.4111 13.1819 30.1957 11.2004C30.6015 10.178 30.9122 9.95593 32.012 9.95317C34.0794 9.94847 36.1467 9.94663 38.2141 9.95317C38.5807 9.95501 38.9642 9.98957 39.3102 10.0997C39.8719 10.2788 40.0949 10.7369 39.9633 11.3181C39.6563 12.6802 38.9203 13.8379 38.132 14.9509C36.8669 16.7365 35.5413 18.4792 34.2465 20.2442C34.0813 20.4691 33.9358 20.7088 33.8005 20.9523C33.3163 21.8274 33.3499 22.318 34.0561 23.0466C35.1802 24.2063 36.3837 25.2912 37.4724 26.4825C38.2636 27.3492 38.9958 28.2895 39.6228 29.2793C40.4158 30.5313 39.926 31.7105 38.4446 31.9204C37.5126 32.052 32.9601 31.9214 32.7249 31.9204C31.5009 31.9149 30.4281 31.4903 29.5641 30.6591C28.6033 29.7337 27.73 28.7186 26.8074 27.7531C26.5294 27.462 26.2327 27.1831 25.9127 26.9395C25.158 26.3639 24.4172 26.4917 24.0646 27.378C23.7633 28.1393 23.503 30.1385 23.4908 30.3092C23.4274 31.202 22.8593 31.7711 21.8591 31.8261C18.9718 31.9828 16.1739 31.661 13.5674 30.2645C11.3582 29.0815 9.59415 27.4088 8.06603 25.4581C5.63858 22.3597 3.72121 18.9539 1.97071 15.4481C1.88125 15.2689 0.108254 11.4961 0.0606092 11.3179C-0.0977651 10.7212 0.0499759 10.1512 0.554136 9.95501C0.868431 9.83273 6.71407 9.9546 6.8113 9.95982C7.74407 10.0103 8.38012 10.4039 8.77304 11.372Z" fill="white"/>
</svg>
