<svg width="33" height="40" viewBox="0 0 33 40" fill="none" xmlns="http://www.w3.org/2000/svg">
<path fill-rule="evenodd" clip-rule="evenodd" d="M20.7038 27.3618C20.7404 27.4899 20.7643 27.6222 20.7651 27.7512C20.7662 27.9745 20.7672 28.1978 20.7679 28.4211C20.7734 29.9844 20.7714 31.5477 20.7694 33.1117C20.7692 33.2744 20.7689 33.437 20.7687 33.5996C20.7687 33.6134 20.7685 33.6273 20.7681 33.6411C20.7667 33.6895 20.7628 33.738 20.7567 33.7863C20.7507 33.8346 20.7424 33.8824 20.7323 33.9297C20.6413 34.3618 20.3124 34.5561 19.8464 34.4602C19.5636 34.4019 19.3427 34.2393 19.1534 34.0342C19.1449 34.0245 19.0891 33.9493 19.0891 33.9493V33.9491V33.7878V33.7877L19.0842 27.2379V27.2378C19.0842 27.2378 19.1267 27.1164 19.2202 27.0351C19.4532 26.8288 19.7105 26.6989 20.0321 26.7305C20.3064 26.7572 20.5248 26.8834 20.6267 27.1371C20.6554 27.2094 20.6819 27.2849 20.7038 27.3618ZM27.2762 26.7391C27.7641 26.7391 28.1597 27.136 28.1597 27.6239V29.1518H26.3915V27.6239C26.3915 27.136 26.7871 26.7391 27.2762 26.7391Z" fill="white"/>
<path fill-rule="evenodd" clip-rule="evenodd" d="M28.099 17.8735C20.3476 17.7072 12.5926 17.7072 4.83993 17.8735C2.15054 17.9305 0 20.1296 0 22.8202V34.9273C0 37.6191 2.15054 39.8182 4.83993 39.8753C12.5926 40.0415 20.3476 40.0415 28.099 39.8753C30.7896 39.8182 32.9402 37.6191 32.9402 34.9273V22.8202C32.9402 20.1297 30.7896 17.9305 28.099 17.8735ZM4.88119 36.0306H7.11669V23.3883H9.43592V21.279H2.56681V23.3932H4.88119V36.0306ZM15.1169 36.0317V30.7852V25.1358L13.1363 25.1407V33.2574C13.1363 33.3253 13.1363 33.4103 13.0986 33.4576C12.8438 33.7865 12.5404 34.0608 12.1423 34.2064C11.7964 34.3326 11.5209 34.1785 11.4481 33.8193C11.419 33.6773 11.4178 33.528 11.4178 33.3824C11.4166 30.7063 11.4093 25.2195 11.4056 25.1528H9.43107C9.43107 25.2268 9.42864 32.8702 9.4335 34.3144C9.43471 34.7052 9.47597 35.0936 9.6386 35.4565C9.81336 35.8497 10.1034 36.0985 10.5355 36.1701C10.8522 36.2247 11.1617 36.1895 11.4627 36.0863C12.0792 35.8739 12.5622 35.4734 12.9882 34.9929C13.0258 34.9504 13.0659 34.9091 13.1375 34.8327V36.0317H15.1169ZM20.9629 36.1761C21.8003 36.1846 22.3829 35.7793 22.6474 34.9831C22.77 34.6131 22.8101 34.2319 22.8113 33.846C22.8137 31.784 22.8137 29.7221 22.8101 27.6601C22.8101 27.0897 22.7409 26.529 22.4945 26.0035C22.077 25.114 21.1996 24.8785 20.4386 25.0691C19.9775 25.1856 19.6037 25.4513 19.2966 25.7948C19.1947 25.9101 19.083 26.1334 19.083 26.1334V21.2777H17.1V36.0293H19.083V35.2016C19.083 35.2016 19.2238 35.3509 19.2748 35.4055C19.7299 35.8994 20.2821 36.1701 20.9629 36.1761ZM27.8769 36.2855C28.9182 36.1326 29.6282 35.5743 29.9716 34.5682C30.2302 33.8145 30.1998 32.1628 30.1998 32.1628H28.1597V33.5621C28.1597 34.0512 27.7641 34.4468 27.2762 34.4468C26.7871 34.4468 26.3915 34.0512 26.3915 33.5621V30.84H30.1889C30.1889 30.84 30.2107 28.9406 30.195 28.079C30.1889 27.7112 30.161 27.3387 30.0857 26.9794C29.8891 26.0474 29.3879 25.3447 28.4498 25.0364C28.1743 24.9454 27.8781 24.8981 27.5881 24.8799C26.6233 24.818 25.7786 25.0934 25.1184 25.8325C24.5395 26.4794 24.338 27.2586 24.3368 28.1032C24.3332 29.7186 24.3259 31.3351 24.3417 32.9504C24.3465 33.3619 24.3926 33.7818 24.4861 34.1823C24.6875 35.0427 25.1572 35.7187 25.9861 36.0925C26.5917 36.3668 27.2313 36.3801 27.8769 36.2855Z" fill="white"/>
<path d="M25.6956 3.8739L25.695 14.8261H23.6656L23.668 13.6495C23.4436 13.8705 23.2521 14.077 23.0417 14.2624C22.6686 14.591 22.246 14.8361 21.7517 14.9328C20.9928 15.0812 20.3465 14.8413 20.1045 14.0554C20.0239 13.7936 19.9752 13.5114 19.9731 13.2381V3.8739H21.9873V12.2262C21.9873 12.3369 21.9961 12.4488 22.0156 12.5573C22.0767 12.9014 22.3311 13.0635 22.6625 12.9485C23.0666 12.8087 23.3748 12.529 23.6363 12.1994C23.6735 12.1523 23.6668 12.0644 23.6668 11.9953V3.8739H25.6956Z" fill="white"/>
<path d="M8.91022 5.77709C8.46967 3.92013 7.54671 0 7.54671 0H5.2373C5.2373 0 7.01162 5.8845 7.80509 8.50884C7.83361 8.60374 7.84672 8.70678 7.84672 8.80617L7.84587 14.8238H9.97541L9.97456 8.80617C9.97456 8.70678 9.98767 8.60374 10.0162 8.50884C10.8097 5.8845 12.584 0 12.584 0H10.2746C10.2746 0 9.35149 3.92013 8.91107 5.77709H8.91022Z" fill="white"/>
<path d="M15.3637 3.59973C13.7588 3.59973 12.4578 4.90074 12.4578 6.50563V12.1925C12.4578 13.7974 13.7588 15.0984 15.3637 15.0984C16.9686 15.0984 18.2696 13.7974 18.2696 12.1925V6.50563C18.2697 4.90074 16.9686 3.59973 15.3637 3.59973ZM16.2023 12.3074C16.2023 12.7697 15.8261 13.1459 15.3638 13.1459C14.9015 13.1459 14.5253 12.7697 14.5253 12.3074V6.3907C14.5253 5.92831 14.9015 5.55221 15.3638 5.55221C15.8261 5.55221 16.2023 5.92843 16.2023 6.3907V12.3074Z" fill="white"/>
</svg>
